<svg xmlns="http://www.w3.org/2000/svg" viewBox="0 0 24 24" fill="currentColor">
  <path d="M12 2C8.13 2 5 5.13 5 9c0 1.74.6 3.34 1.61 4.61C7.87 15.24 10.13 16 12 16s4.13-.76 5.39-2.39C18.4 12.34 19 10.74 19 9c0-3.87-3.13-7-7-7zm0 12c-1.38 0-2.5-1.12-2.5-2.5S10.62 9 12 9s2.5 1.12 2.5 2.5S13.38 14 12 14z"/>
  <path d="M12 7c-.83 0-1.5.67-1.5 1.5s.67 1.5 1.5 1.5 1.5-.67 1.5-1.5S12.83 7 12 7z"/>
  <path d="M7.5 16.5c-.28 0-.5.22-.5.5s.22.5.5.5h9c.28 0 .5-.22.5-.5s-.22-.5-.5-.5h-9z"/>
  <circle cx="9" cy="11" r="1"/>
  <circle cx="15" cy="11" r="1"/>
  <path d="M12 4c.55 0 1 .45 1 1v1c0 .55-.45 1-1 1s-1-.45-1-1V5c0-.55.45-1 1-1z"/>
</svg>