<svg xmlns="http://www.w3.org/2000/svg" viewBox="0 0 32 32" fill="#6366f1">
  <path d="M16 4c-5.15 0-9.33 4.18-9.33 9.33 0 2.32.8 4.45 2.15 6.15C10.49 21.32 13.17 22.67 16 22.67s5.51-1.35 7.18-3.19c1.35-1.7 2.15-3.83 2.15-6.15C25.33 8.18 21.15 4 16 4z"/>
  <circle cx="12" cy="14" r="1.5" fill="#fff"/>
  <circle cx="20" cy="14" r="1.5" fill="#fff"/>
  <path d="M13 18c.5.5 1.5.5 2 0s1.5-.5 2 0" stroke="#fff" stroke-width="1" fill="none" stroke-linecap="round"/>
  <path d="M10 10c1-1 2-1 3 0" stroke="#fff" stroke-width="0.8" fill="none" stroke-linecap="round"/>
  <path d="M19 10c1-1 2-1 3 0" stroke="#fff" stroke-width="0.8" fill="none" stroke-linecap="round"/>
</svg>
